<svg width="16" height="16" viewBox="0 0 16 16" fill="none" xmlns="http://www.w3.org/2000/svg">
<mask id="mask0_3422_15464" style="mask-type:alpha" maskUnits="userSpaceOnUse" x="0" y="0" width="16" height="16">
<rect width="16" height="16" fill="#D9D9D9"/>
</mask>
<g mask="url(#mask0_3422_15464)">
<path d="M4.8718 13.6665C4.54039 13.6665 4.25668 13.5485 4.02068 13.3125C3.78467 13.0765 3.66667 12.7928 3.66667 12.4614V3.99987H3.5C3.35833 3.99987 3.23958 3.95193 3.14375 3.85606C3.04792 3.76019 3 3.64139 3 3.49966C3 3.35793 3.04792 3.23921 3.14375 3.14349C3.23958 3.04776 3.35833 2.99989 3.5 2.99989H5.99998C5.99998 2.83664 6.05746 2.69755 6.17242 2.58259C6.28737 2.46763 6.42647 2.41016 6.58972 2.41016H9.41025C9.57349 2.41016 9.71259 2.46763 9.82755 2.58259C9.94251 2.69755 9.99998 2.83664 9.99998 2.99989H12.5C12.6416 2.99989 12.7604 3.04783 12.8562 3.14371C12.9521 3.23958 13 3.35838 13 3.50011C13 3.64184 12.9521 3.76057 12.8562 3.85629C12.7604 3.95201 12.6416 3.99987 12.5 3.99987H12.3333V12.4614C12.3333 12.7928 12.2153 13.0765 11.9793 13.3125C11.7433 13.5485 11.4596 13.6665 11.1282 13.6665H4.8718ZM11.3333 3.99987H4.66665V12.4614C4.66665 12.5212 4.68588 12.5704 4.72435 12.6088C4.76282 12.6473 4.81197 12.6665 4.8718 12.6665H11.1282C11.188 12.6665 11.2372 12.6473 11.2756 12.6088C11.3141 12.5704 11.3333 12.5212 11.3333 12.4614V3.99987ZM6.76945 11.3332C6.91117 11.3332 7.02989 11.2853 7.12562 11.1895C7.22135 11.0936 7.26922 10.9749 7.26922 10.8332V5.83319C7.26922 5.69153 7.22128 5.57279 7.1254 5.47696C7.02952 5.38112 6.91072 5.33321 6.769 5.33321C6.62727 5.33321 6.50854 5.38112 6.41282 5.47696C6.31709 5.57279 6.26923 5.69153 6.26923 5.83319V10.8332C6.26923 10.9749 6.31717 11.0936 6.41305 11.1895C6.50892 11.2853 6.62772 11.3332 6.76945 11.3332ZM9.23097 11.3332C9.3727 11.3332 9.49143 11.2853 9.58715 11.1895C9.68287 11.0936 9.73073 10.9749 9.73073 10.8332V5.83319C9.73073 5.69153 9.68279 5.57279 9.58692 5.47696C9.49105 5.38112 9.37225 5.33321 9.23052 5.33321C9.08879 5.33321 8.97007 5.38112 8.87435 5.47696C8.77862 5.57279 8.73075 5.69153 8.73075 5.83319V10.8332C8.73075 10.9749 8.77869 11.0936 8.87457 11.1895C8.97044 11.2853 9.08924 11.3332 9.23097 11.3332Z" fill="#8E8E8E"/>
<path d="M4.8718 13.6665C4.54039 13.6665 4.25668 13.5485 4.02068 13.3125C3.78467 13.0765 3.66667 12.7928 3.66667 12.4614V3.99987H3.5C3.35833 3.99987 3.23958 3.95193 3.14375 3.85606C3.04792 3.76019 3 3.64139 3 3.49966C3 3.35793 3.04792 3.23921 3.14375 3.14349C3.23958 3.04776 3.35833 2.99989 3.5 2.99989H5.99998C5.99998 2.83664 6.05746 2.69755 6.17242 2.58259C6.28737 2.46763 6.42647 2.41016 6.58972 2.41016H9.41025C9.57349 2.41016 9.71259 2.46763 9.82755 2.58259C9.94251 2.69755 9.99998 2.83664 9.99998 2.99989H12.5C12.6416 2.99989 12.7604 3.04783 12.8562 3.14371C12.9521 3.23958 13 3.35838 13 3.50011C13 3.64184 12.9521 3.76057 12.8562 3.85629C12.7604 3.95201 12.6416 3.99987 12.5 3.99987H12.3333V12.4614C12.3333 12.7928 12.2153 13.0765 11.9793 13.3125C11.7433 13.5485 11.4596 13.6665 11.1282 13.6665H4.8718ZM11.3333 3.99987H4.66665V12.4614C4.66665 12.5212 4.68588 12.5704 4.72435 12.6088C4.76282 12.6473 4.81197 12.6665 4.8718 12.6665H11.1282C11.188 12.6665 11.2372 12.6473 11.2756 12.6088C11.3141 12.5704 11.3333 12.5212 11.3333 12.4614V3.99987ZM6.76945 11.3332C6.91117 11.3332 7.02989 11.2853 7.12562 11.1895C7.22135 11.0936 7.26922 10.9749 7.26922 10.8332V5.83319C7.26922 5.69153 7.22128 5.57279 7.1254 5.47696C7.02952 5.38112 6.91072 5.33321 6.769 5.33321C6.62727 5.33321 6.50854 5.38112 6.41282 5.47696C6.31709 5.57279 6.26923 5.69153 6.26923 5.83319V10.8332C6.26923 10.9749 6.31717 11.0936 6.41305 11.1895C6.50892 11.2853 6.62772 11.3332 6.76945 11.3332ZM9.23097 11.3332C9.3727 11.3332 9.49143 11.2853 9.58715 11.1895C9.68287 11.0936 9.73073 10.9749 9.73073 10.8332V5.83319C9.73073 5.69153 9.68279 5.57279 9.58692 5.47696C9.49105 5.38112 9.37225 5.33321 9.23052 5.33321C9.08879 5.33321 8.97007 5.38112 8.87435 5.47696C8.77862 5.57279 8.73075 5.69153 8.73075 5.83319V10.8332C8.73075 10.9749 8.77869 11.0936 8.87457 11.1895C8.97044 11.2853 9.08924 11.3332 9.23097 11.3332Z" fill="black" fill-opacity="0.2"/>
</g>
</svg>
