<svg width="16" height="16" viewBox="0 0 16 16" fill="none" xmlns="http://www.w3.org/2000/svg">
<mask id="mask0_2094_15961" style="mask-type:alpha" maskUnits="userSpaceOnUse" x="0" y="0" width="16" height="16">
<rect x="16" width="16" height="16" transform="rotate(90 16 0)" fill="#D9D9D9"/>
</mask>
<g mask="url(#mask0_2094_15961)">
<path d="M7.99947 6.12306L2.97767 11.1449C2.84519 11.2773 2.68921 11.3419 2.50972 11.3384C2.33024 11.335 2.17426 11.2671 2.04179 11.1346C1.90931 11.0021 1.84307 10.8461 1.84307 10.6667C1.84307 10.4872 1.90931 10.3312 2.04179 10.1987L7.14564 5.08463C7.26615 4.9641 7.40119 4.87479 7.55075 4.81668C7.70033 4.75855 7.8499 4.72949 7.99947 4.72949C8.14904 4.72949 8.29861 4.75855 8.44819 4.81668C8.59775 4.87479 8.73279 4.9641 8.8533 5.08463L13.9674 10.1987C14.0999 10.3312 14.1644 10.4889 14.161 10.6718C14.1576 10.8547 14.0896 11.0124 13.9572 11.1449C13.8247 11.2773 13.6687 11.3436 13.4892 11.3436C13.3097 11.3436 13.1537 11.2773 13.0213 11.1449L7.99947 6.12306Z" fill="#8E8E8E"/>
<path d="M7.99947 6.12306L2.97767 11.1449C2.84519 11.2773 2.68921 11.3419 2.50972 11.3384C2.33024 11.335 2.17426 11.2671 2.04179 11.1346C1.90931 11.0021 1.84307 10.8461 1.84307 10.6667C1.84307 10.4872 1.90931 10.3312 2.04179 10.1987L7.14564 5.08463C7.26615 4.9641 7.40119 4.87479 7.55075 4.81668C7.70033 4.75855 7.8499 4.72949 7.99947 4.72949C8.14904 4.72949 8.29861 4.75855 8.44819 4.81668C8.59775 4.87479 8.73279 4.9641 8.8533 5.08463L13.9674 10.1987C14.0999 10.3312 14.1644 10.4889 14.161 10.6718C14.1576 10.8547 14.0896 11.0124 13.9572 11.1449C13.8247 11.2773 13.6687 11.3436 13.4892 11.3436C13.3097 11.3436 13.1537 11.2773 13.0213 11.1449L7.99947 6.12306Z" fill="black" fill-opacity="0.2"/>
</g>
</svg>
