<svg width="24" height="24" viewBox="0 0 24 24" fill="none" xmlns="http://www.w3.org/2000/svg">
<mask id="mask0_3422_15109" style="mask-type:alpha" maskUnits="userSpaceOnUse" x="0" y="0" width="24" height="24">
<rect width="24" height="24" fill="#D9D9D9"/>
</mask>
<g mask="url(#mask0_3422_15109)">
<path d="M10.8928 21.5C10.5518 21.5 10.2572 21.3868 10.0091 21.1605C9.76108 20.9342 9.61012 20.6557 9.55627 20.325L9.31205 18.4538C9.0441 18.3641 8.76942 18.2384 8.488 18.0769C8.20658 17.9153 7.95497 17.7422 7.73317 17.5576L6.00047 18.2942C5.68637 18.4326 5.37067 18.4461 5.05337 18.3346C4.73607 18.223 4.48961 18.0205 4.31397 17.7269L3.18705 15.773C3.01141 15.4794 2.96077 15.1689 3.03512 14.8413C3.10949 14.5138 3.28 14.2436 3.54665 14.0308L5.04475 12.9058C5.02166 12.757 5.00531 12.6077 4.9957 12.4577C4.98608 12.3077 4.98127 12.1583 4.98127 12.0096C4.98127 11.8673 4.98608 11.7227 4.9957 11.5759C5.00531 11.4291 5.02166 11.2686 5.04475 11.0942L3.54665 9.96918C3.28 9.75636 3.11109 9.48458 3.03992 9.15383C2.96877 8.82306 3.02102 8.51088 3.19667 8.2173L4.31397 6.2923C4.48961 6.00513 4.73607 5.80418 5.05337 5.68943C5.37067 5.57469 5.68637 5.58655 6.00047 5.725L7.72355 6.45195C7.96458 6.26092 8.22196 6.08623 8.49567 5.9279C8.76941 5.76955 9.03832 5.6423 9.30242 5.54615L9.55627 3.67498C9.61012 3.34423 9.76108 3.06571 10.0091 2.83943C10.2572 2.61314 10.5518 2.5 10.8928 2.5H13.1081C13.4492 2.5 13.7437 2.61314 13.9918 2.83943C14.2399 3.06571 14.3908 3.34423 14.4447 3.67498L14.6889 5.55578C14.9889 5.66474 15.2604 5.79198 15.5033 5.9375C15.7463 6.08302 15.9915 6.2545 16.2389 6.45195L18.0101 5.725C18.3242 5.58655 18.6399 5.57469 18.9572 5.68943C19.2745 5.80418 19.521 6.00513 19.6966 6.2923L20.8139 8.22693C20.9895 8.52051 21.0402 8.83108 20.9658 9.15863C20.8915 9.48618 20.7209 9.75636 20.4543 9.96918L18.9177 11.123C18.9536 11.2846 18.9732 11.4355 18.9764 11.5759C18.9796 11.7163 18.9812 11.8577 18.9812 12C18.9812 12.1359 18.978 12.274 18.9716 12.4144C18.9652 12.5548 18.9421 12.7154 18.9023 12.8962L20.4101 14.0308C20.6767 14.2436 20.8488 14.5138 20.9264 14.8413C21.004 15.1689 20.9549 15.4794 20.7793 15.773L19.6466 17.7173C19.471 18.0108 19.2229 18.2134 18.9024 18.325C18.5819 18.4365 18.2646 18.423 17.9505 18.2846L16.2389 17.548C15.9915 17.7455 15.7389 17.9201 15.4812 18.0721C15.2235 18.224 14.9594 18.348 14.6889 18.4442L14.4447 20.325C14.3908 20.6557 14.2399 20.9342 13.9918 21.1605C13.7437 21.3868 13.4492 21.5 13.1081 21.5H10.8928ZM11.0005 20H12.9658L13.3255 17.3211C13.8357 17.1878 14.3021 16.9984 14.7245 16.7529C15.1469 16.5074 15.5543 16.1917 15.9466 15.8058L18.4312 16.85L19.4158 15.15L17.2466 13.5154C17.33 13.2564 17.3867 13.0025 17.4168 12.7538C17.4469 12.5051 17.462 12.2538 17.462 12C17.462 11.7397 17.4469 11.4884 17.4168 11.2461C17.3867 11.0038 17.33 10.7564 17.2466 10.5038L19.4351 8.84998L18.4505 7.14998L15.937 8.2096C15.6024 7.8519 15.2014 7.53588 14.7341 7.26153C14.2668 6.98716 13.794 6.79293 13.3158 6.67883L13.0005 3.99998H11.0158L10.6851 6.6692C10.1748 6.78972 9.70367 6.97433 9.27162 7.22305C8.83957 7.47177 8.4274 7.79228 8.0351 8.1846L5.55047 7.14998L4.56585 8.84998L6.72547 10.4596C6.64214 10.6968 6.58381 10.9436 6.55047 11.2C6.51714 11.4564 6.50047 11.7263 6.50047 12.0096C6.50047 12.2699 6.51714 12.525 6.55047 12.775C6.58381 13.025 6.63893 13.2718 6.71585 13.5154L4.56585 15.15L5.55047 16.85L8.02547 15.8C8.40496 16.1897 8.81072 16.509 9.24277 16.7577C9.67482 17.0064 10.1524 17.1974 10.6755 17.3308L11.0005 20ZM12.012 15C12.844 15 13.5521 14.708 14.136 14.124C14.72 13.54 15.012 12.832 15.012 12C15.012 11.1679 14.72 10.4599 14.136 9.87595C13.5521 9.29198 12.844 9 12.012 9C11.1697 9 10.4591 9.29198 9.8803 9.87595C9.30147 10.4599 9.01205 11.1679 9.01205 12C9.01205 12.832 9.30147 13.54 9.8803 14.124C10.4591 14.708 11.1697 15 12.012 15Z" fill="#175C8E"/>
</g>
</svg>
