<svg width="16" height="16" viewBox="0 0 16 16" fill="none" xmlns="http://www.w3.org/2000/svg">
<mask id="mask0_1807_8119" style="mask-type:alpha" maskUnits="userSpaceOnUse" x="0" y="0" width="16" height="16">
<rect y="16" width="16" height="16" transform="rotate(-90 0 16)" fill="#D9D9D9"/>
</mask>
<g mask="url(#mask0_1807_8119)">
<path d="M8.00053 9.87694L13.0223 4.85514C13.1548 4.72266 13.3108 4.65813 13.4903 4.66156C13.6698 4.66498 13.8257 4.73293 13.9582 4.86541C14.0907 4.99787 14.1569 5.15385 14.1569 5.33334C14.1569 5.51283 14.0907 5.66881 13.9582 5.80127L8.85436 10.9154C8.73385 11.0359 8.59881 11.1252 8.44925 11.1833C8.29967 11.2414 8.1501 11.2705 8.00053 11.2705C7.85096 11.2705 7.70139 11.2414 7.55181 11.1833C7.40225 11.1252 7.26721 11.0359 7.1467 10.9154L2.0326 5.80127C1.90012 5.66881 1.83558 5.51112 1.839 5.32821C1.84242 5.14531 1.91037 4.98762 2.04285 4.85514C2.17532 4.72266 2.3313 4.65642 2.51078 4.65642C2.69027 4.65642 2.84625 4.72266 2.97873 4.85514L8.00053 9.87694Z" fill="#8E8E8E"/>
<path d="M8.00053 9.87694L13.0223 4.85514C13.1548 4.72266 13.3108 4.65813 13.4903 4.66156C13.6698 4.66498 13.8257 4.73293 13.9582 4.86541C14.0907 4.99787 14.1569 5.15385 14.1569 5.33334C14.1569 5.51283 14.0907 5.66881 13.9582 5.80127L8.85436 10.9154C8.73385 11.0359 8.59881 11.1252 8.44925 11.1833C8.29967 11.2414 8.1501 11.2705 8.00053 11.2705C7.85096 11.2705 7.70139 11.2414 7.55181 11.1833C7.40225 11.1252 7.26721 11.0359 7.1467 10.9154L2.0326 5.80127C1.90012 5.66881 1.83558 5.51112 1.839 5.32821C1.84242 5.14531 1.91037 4.98762 2.04285 4.85514C2.17532 4.72266 2.3313 4.65642 2.51078 4.65642C2.69027 4.65642 2.84625 4.72266 2.97873 4.85514L8.00053 9.87694Z" fill="black" fill-opacity="0.2"/>
</g>
</svg>
