<svg width="24" height="25" viewBox="0 0 24 25" fill="none" xmlns="http://www.w3.org/2000/svg">
<mask id="mask0_3422_14628" style="mask-type:alpha" maskUnits="userSpaceOnUse" x="0" y="0" width="24" height="25">
<rect y="0.5" width="24" height="24" fill="#D9D9D9"/>
</mask>
<g mask="url(#mask0_3422_14628)">
<path d="M11.25 13.25V16.5C11.25 16.7125 11.3219 16.8906 11.4657 17.0343C11.6095 17.1781 11.7877 17.25 12.0003 17.25C12.2129 17.25 12.391 17.1781 12.5346 17.0343C12.6782 16.8906 12.75 16.7125 12.75 16.5V13.25H16C16.2125 13.25 16.3906 13.1781 16.5344 13.0343C16.6781 12.8904 16.75 12.7122 16.75 12.4997C16.75 12.2871 16.6781 12.109 16.5344 11.9654C16.3906 11.8218 16.2125 11.75 16 11.75H12.75V8.49998C12.75 8.28748 12.6781 8.10935 12.5343 7.9656C12.3904 7.82187 12.2122 7.75 11.9997 7.75C11.7871 7.75 11.609 7.82187 11.4654 7.9656C11.3218 8.10935 11.25 8.28748 11.25 8.49998V11.75H7.99998C7.78748 11.75 7.60936 11.8219 7.46563 11.9657C7.32188 12.1095 7.25 12.2877 7.25 12.5003C7.25 12.7129 7.32188 12.891 7.46563 13.0346C7.60936 13.1782 7.78748 13.25 7.99998 13.25H11.25ZM12.0016 22C10.6877 22 9.45268 21.7506 8.29655 21.252C7.1404 20.7533 6.13472 20.0765 5.2795 19.2217C4.42427 18.3669 3.74721 17.3616 3.24833 16.206C2.74944 15.0504 2.5 13.8156 2.5 12.5017C2.5 11.1877 2.74933 9.95268 3.248 8.79655C3.74667 7.6404 4.42342 6.63472 5.27825 5.7795C6.1331 4.92427 7.13834 4.24721 8.29398 3.74833C9.44959 3.24944 10.6844 3 11.9983 3C13.3122 3 14.5473 3.24933 15.7034 3.748C16.8596 4.24667 17.8652 4.92342 18.7205 5.77825C19.5757 6.6331 20.2527 7.63834 20.7516 8.79398C21.2505 9.94959 21.5 11.1844 21.5 12.4983C21.5 13.8122 21.2506 15.0473 20.752 16.2034C20.2533 17.3596 19.5765 18.3652 18.7217 19.2205C17.8669 20.0757 16.8616 20.7527 15.706 21.2516C14.5504 21.7505 13.3156 22 12.0016 22ZM12 20.5C14.2333 20.5 16.125 19.725 17.675 18.175C19.225 16.625 20 14.7333 20 12.5C20 10.2666 19.225 8.37498 17.675 6.82498C16.125 5.27498 14.2333 4.49998 12 4.49998C9.76664 4.49998 7.87498 5.27498 6.32498 6.82498C4.77498 8.37498 3.99998 10.2666 3.99998 12.5C3.99998 14.7333 4.77498 16.625 6.32498 18.175C7.87498 19.725 9.76664 20.5 12 20.5Z" fill="#4590BB"/>
</g>
</svg>
