<svg width="16" height="16" viewBox="0 0 16 16" fill="none" xmlns="http://www.w3.org/2000/svg">
<mask id="mask0_3422_15370" style="mask-type:alpha" maskUnits="userSpaceOnUse" x="0" y="0" width="16" height="16">
<rect width="16" height="16" fill="#D9D9D9"/>
</mask>
<g mask="url(#mask0_3422_15370)">
<path d="M3.06477 13.6412C2.85282 13.6882 2.67034 13.6352 2.51734 13.4823C2.36435 13.3293 2.31136 13.1468 2.35837 12.9348L2.91606 10.2579L5.74166 13.0835L3.06477 13.6412ZM5.74166 13.0835L2.91606 10.2579L10.3955 2.77846C10.6254 2.54855 10.9101 2.43359 11.2494 2.43359C11.5887 2.43359 11.8733 2.54855 12.1032 2.77846L13.2211 3.89639C13.451 4.1263 13.566 4.41092 13.566 4.75023C13.566 5.08954 13.451 5.37415 13.2211 5.60406L5.74166 13.0835ZM11.1083 3.48101L4.29167 10.2913L5.70834 11.7079L12.5186 4.89126C12.5571 4.85279 12.5763 4.80472 12.5763 4.74703C12.5763 4.68933 12.5571 4.64124 12.5186 4.60278L11.3968 3.48101C11.3584 3.44254 11.3103 3.42331 11.2526 3.42331C11.1949 3.42331 11.1468 3.44254 11.1083 3.48101Z" fill="#4B4B4B"/>
</g>
</svg>
