<svg width="16" height="16" viewBox="0 0 16 16" fill="none" xmlns="http://www.w3.org/2000/svg">
<mask id="mask0_3422_15373" style="mask-type:alpha" maskUnits="userSpaceOnUse" x="0" y="0" width="16" height="16">
<rect width="16" height="16" fill="#D9D9D9"/>
</mask>
<g mask="url(#mask0_3422_15373)">
<path d="M7.5026 8.49964V10.6663C7.5026 10.8082 7.55047 10.927 7.64619 11.0227C7.74191 11.1184 7.86071 11.1663 8.00259 11.1663C8.14446 11.1663 8.26327 11.1184 8.35899 11.0227C8.45471 10.927 8.50257 10.8082 8.50257 10.6663V8.49964H10.6693C10.8111 8.49964 10.9299 8.45178 11.0257 8.35606C11.1214 8.26034 11.1692 8.14154 11.1692 7.99966C11.1692 7.85778 11.1214 7.73898 11.0257 7.64326C10.9299 7.54754 10.8111 7.49968 10.6693 7.49968H8.50257V5.33299C8.50257 5.19111 8.45471 5.07231 8.35899 4.97659C8.26327 4.88087 8.14446 4.83301 8.00259 4.83301C7.86071 4.83301 7.74191 4.88087 7.64619 4.97659C7.55047 5.07231 7.5026 5.19111 7.5026 5.33299V7.49968H5.33592C5.19404 7.49968 5.07524 7.54754 4.97952 7.64326C4.8838 7.73898 4.83594 7.85778 4.83594 7.99966C4.83594 8.14154 4.8838 8.26034 4.97952 8.35606C5.07524 8.45178 5.19404 8.49964 5.33592 8.49964H7.5026ZM3.54107 13.6663C3.20432 13.6663 2.91927 13.5496 2.68594 13.3163C2.4526 13.083 2.33594 12.7979 2.33594 12.4612V3.53814C2.33594 3.20139 2.4526 2.91634 2.68594 2.68301C2.91927 2.44967 3.20432 2.33301 3.54107 2.33301H12.4641C12.8009 2.33301 13.0859 2.44967 13.3192 2.68301C13.5526 2.91634 13.6692 3.20139 13.6692 3.53814V12.4612C13.6692 12.7979 13.5526 13.083 13.3192 13.3163C13.0859 13.5496 12.8009 13.6663 12.4641 13.6663H3.54107ZM3.54107 12.6663H12.4641C12.5154 12.6663 12.5624 12.645 12.6052 12.6022C12.6479 12.5595 12.6693 12.5125 12.6693 12.4612V3.53814C12.6693 3.48685 12.6479 3.43984 12.6052 3.39709C12.5624 3.35436 12.5154 3.33299 12.4641 3.33299H3.54107C3.48978 3.33299 3.44277 3.35436 3.40002 3.39709C3.35729 3.43984 3.33592 3.48685 3.33592 3.53814V12.4612C3.33592 12.5125 3.35729 12.5595 3.40002 12.6022C3.44277 12.645 3.48978 12.6663 3.54107 12.6663Z" fill="#4B4B4B"/>
</g>
</svg>
