<svg width="24" height="25" viewBox="0 0 24 25" fill="none" xmlns="http://www.w3.org/2000/svg">
<mask id="mask0_3422_14491" style="mask-type:alpha" maskUnits="userSpaceOnUse" x="0" y="0" width="24" height="25">
<rect y="0.5" width="24" height="24" fill="#D9D9D9"/>
</mask>
<g mask="url(#mask0_3422_14491)">
<path d="M20.6923 9.00014C21.1679 9.00014 21.5881 9.18251 21.9528 9.54726C22.3176 9.91199 22.5 10.3322 22.5 10.8078V12.4232C22.5 12.5281 22.4865 12.6406 22.4596 12.7606C22.4326 12.8805 22.4025 12.9924 22.3692 13.0963L19.5034 19.8589C19.3601 20.1787 19.1198 20.4488 18.7827 20.6693C18.4455 20.8898 18.0937 21.0001 17.7272 21.0001H7.21153V9.00014L13.0288 3.23286C13.2275 3.03414 13.4577 2.91555 13.7192 2.87709C13.9807 2.83862 14.2314 2.88349 14.4711 3.01171C14.7108 3.13991 14.8865 3.32195 14.998 3.55784C15.1096 3.79374 15.1333 4.03796 15.0692 4.29051L13.9923 9.00014H20.6923ZM8.7115 9.63859V19.5001H17.7307C17.8012 19.5001 17.8734 19.4809 17.9471 19.4424C18.0208 19.4039 18.0769 19.3398 18.1154 19.2501L21 12.5001V10.8078C21 10.7181 20.9711 10.6444 20.9134 10.5867C20.8557 10.529 20.782 10.5001 20.6923 10.5001H12.0961L13.35 5.01934L8.7115 9.63859ZM4.3077 21.0001C3.81058 21.0001 3.38503 20.8231 3.03102 20.4691C2.67701 20.1151 2.5 19.6895 2.5 19.1924V10.8078C2.5 10.3107 2.67701 9.88516 3.03102 9.53116C3.38503 9.17714 3.81058 9.00014 4.3077 9.00014H7.21153V10.5001H4.3077C4.21795 10.5001 4.14423 10.529 4.08653 10.5867C4.02883 10.6444 3.99998 10.7181 3.99998 10.8078V19.1924C3.99998 19.2821 4.02883 19.3559 4.08653 19.4136C4.14423 19.4713 4.21795 19.5001 4.3077 19.5001H7.21153V21.0001H4.3077Z" fill="#4590BB"/>
</g>
</svg>
