<svg width="16" height="16" viewBox="0 0 16 16" fill="none" xmlns="http://www.w3.org/2000/svg">
<mask id="mask0_3422_15467" style="mask-type:alpha" maskUnits="userSpaceOnUse" x="0" y="0" width="16" height="16">
<rect width="16" height="16" fill="#D9D9D9"/>
</mask>
<g mask="url(#mask0_3422_15467)">
<path d="M3.53814 13.6668C3.20139 13.6668 2.91634 13.5501 2.68301 13.3168C2.44967 13.0835 2.33301 12.7984 2.33301 12.4617V3.53863C2.33301 3.20187 2.44967 2.91683 2.68301 2.6835C2.91634 2.45016 3.20139 2.3335 3.53814 2.3335H12.4612C12.7979 2.3335 13.083 2.45016 13.3163 2.6835C13.5496 2.91683 13.6663 3.20187 13.6663 3.53863V12.4617C13.6663 12.7984 13.5496 13.0835 13.3163 13.3168C13.083 13.5501 12.7979 13.6668 12.4612 13.6668H3.53814ZM3.53814 12.6668H12.4612C12.5125 12.6668 12.5595 12.6454 12.6022 12.6027C12.645 12.56 12.6663 12.513 12.6663 12.4617V3.53863C12.6663 3.48734 12.645 3.44032 12.6022 3.39758C12.5595 3.35485 12.5125 3.33348 12.4612 3.33348H3.53814C3.48685 3.33348 3.43984 3.35485 3.39709 3.39758C3.35436 3.44032 3.33299 3.48734 3.33299 3.53863V12.4617C3.33299 12.513 3.35436 12.56 3.39709 12.6027C3.43984 12.6454 3.48685 12.6668 3.53814 12.6668Z" fill="#8E8E8E"/>
<path d="M3.53814 13.6668C3.20139 13.6668 2.91634 13.5501 2.68301 13.3168C2.44967 13.0835 2.33301 12.7984 2.33301 12.4617V3.53863C2.33301 3.20187 2.44967 2.91683 2.68301 2.6835C2.91634 2.45016 3.20139 2.3335 3.53814 2.3335H12.4612C12.7979 2.3335 13.083 2.45016 13.3163 2.6835C13.5496 2.91683 13.6663 3.20187 13.6663 3.53863V12.4617C13.6663 12.7984 13.5496 13.0835 13.3163 13.3168C13.083 13.5501 12.7979 13.6668 12.4612 13.6668H3.53814ZM3.53814 12.6668H12.4612C12.5125 12.6668 12.5595 12.6454 12.6022 12.6027C12.645 12.56 12.6663 12.513 12.6663 12.4617V3.53863C12.6663 3.48734 12.645 3.44032 12.6022 3.39758C12.5595 3.35485 12.5125 3.33348 12.4612 3.33348H3.53814C3.48685 3.33348 3.43984 3.35485 3.39709 3.39758C3.35436 3.44032 3.33299 3.48734 3.33299 3.53863V12.4617C3.33299 12.513 3.35436 12.56 3.39709 12.6027C3.43984 12.6454 3.48685 12.6668 3.53814 12.6668Z" fill="black" fill-opacity="0.2"/>
</g>
</svg>
