<svg width="24" height="25" viewBox="0 0 24 25" fill="none" xmlns="http://www.w3.org/2000/svg">
<mask id="mask0_3422_14496" style="mask-type:alpha" maskUnits="userSpaceOnUse" x="0" y="0" width="24" height="25">
<rect y="0.5" width="24" height="24" fill="#D9D9D9"/>
</mask>
<g mask="url(#mask0_3422_14496)">
<path d="M10.9503 13.5653L9.32719 11.9576C9.18874 11.8192 9.01727 11.7484 8.81279 11.7451C8.6083 11.7419 8.4285 11.8179 8.27339 11.973C8.1285 12.1179 8.05606 12.2935 8.05606 12.4999C8.05606 12.7063 8.1285 12.882 8.27339 13.0268L10.3176 15.0711C10.4984 15.2518 10.7093 15.3422 10.9503 15.3422C11.1913 15.3422 11.4022 15.2518 11.583 15.0711L15.7272 10.9268C15.8759 10.7781 15.9493 10.6041 15.9474 10.4047C15.9455 10.2054 15.8721 10.0282 15.7272 9.87304C15.5721 9.71791 15.3939 9.63777 15.1926 9.63264C14.9913 9.62752 14.8131 9.70252 14.658 9.85764L10.9503 13.5653ZM8.40991 21.6826L7.02724 19.3576L4.41186 18.7961C4.18749 18.7525 4.00833 18.6345 3.87436 18.4422C3.74039 18.2499 3.68687 18.0416 3.71379 17.8172L3.96956 15.1268L2.19071 13.0922C2.03688 12.9281 1.95996 12.7307 1.95996 12.4999C1.95996 12.2692 2.03688 12.0717 2.19071 11.9076L3.96956 9.87304L3.71379 7.18266C3.68687 6.9583 3.74039 6.74996 3.87436 6.55766C4.00833 6.36535 4.18749 6.2474 4.41186 6.20382L7.02724 5.64229L8.40991 3.31729C8.53043 3.11986 8.69454 2.98524 8.90224 2.91344C9.10992 2.84166 9.32081 2.85256 9.53491 2.94614L12.0003 3.98844L14.4657 2.94614C14.6798 2.85256 14.8907 2.84166 15.0983 2.91344C15.306 2.98524 15.4701 3.11986 15.5907 3.31729L16.9733 5.64229L19.5887 6.20382C19.8131 6.2474 19.9922 6.36535 20.1262 6.55766C20.2602 6.74996 20.3137 6.9583 20.2868 7.18266L20.031 9.87304L21.8099 11.9076C21.9637 12.0717 22.0406 12.2692 22.0406 12.4999C22.0406 12.7307 21.9637 12.9281 21.8099 13.0922L20.031 15.1268L20.2868 17.8172C20.3137 18.0416 20.2602 18.2499 20.1262 18.4422C19.9922 18.6345 19.8131 18.7525 19.5887 18.7961L16.9733 19.3576L15.5907 21.6826C15.4701 21.88 15.306 22.0146 15.0983 22.0864C14.8907 22.1582 14.6798 22.1473 14.4657 22.0537L12.0003 21.0114L9.53491 22.0537C9.32081 22.1473 9.10992 22.1582 8.90224 22.0864C8.69454 22.0146 8.53043 21.88 8.40991 21.6826ZM9.45029 20.4499L12.0003 19.3692L14.5811 20.4499L16.0003 18.0499L18.7503 17.4192L18.5003 14.5999L20.3503 12.4999L18.5003 10.3692L18.7503 7.54994L16.0003 6.94994L14.5503 4.54994L12.0003 5.63072L9.41951 4.54994L8.00029 6.94994L5.25029 7.54994L5.50029 10.3692L3.65029 12.4999L5.50029 14.5999L5.25029 17.4499L8.00029 18.0499L9.45029 20.4499Z" fill="#4590BB"/>
</g>
</svg>
