<svg width="64" height="65" viewBox="0 0 64 65" fill="none" xmlns="http://www.w3.org/2000/svg">
<path d="M41.4131 38.18C41.1652 37.9301 40.8703 37.7317 40.5453 37.5963C40.2204 37.4609 39.8718 37.3912 39.5198 37.3912C39.1678 37.3912 38.8192 37.4609 38.4943 37.5963C38.1693 37.7317 37.8744 37.9301 37.6265 38.18C37.1298 38.6796 36.851 39.3555 36.851 40.06C36.851 40.7645 37.1298 41.4404 37.6265 41.94L54.1065 58.42C54.3544 58.6699 54.6493 58.8683 54.9743 59.0037C55.2992 59.1391 55.6478 59.2088 55.9998 59.2088C56.3518 59.2088 56.7004 59.1391 57.0253 59.0037C57.3503 58.8683 57.6452 58.6699 57.8931 58.42C58.3898 57.9204 58.6686 57.2445 58.6686 56.54C58.6686 55.8355 58.3898 55.1596 57.8931 54.66L41.4131 38.18ZM44.6931 31.54C46.8141 31.5381 48.8476 30.6941 50.3465 29.1933L57.8931 21.6467C58.3898 21.147 58.6686 20.4712 58.6686 19.7667C58.6686 19.0622 58.3898 18.3863 57.8931 17.8867C57.6452 17.6367 57.3503 17.4383 57.0253 17.303C56.7004 17.1676 56.3518 17.0979 55.9998 17.0979C55.6478 17.0979 55.2992 17.1676 54.9743 17.303C54.6493 17.4383 54.3544 17.6367 54.1065 17.8867L46.5598 25.4333C46.0602 25.93 45.3843 26.2088 44.6798 26.2088C43.9753 26.2088 43.2994 25.93 42.7998 25.4333L52.2398 15.9933C52.7365 15.4937 53.0152 14.8178 53.0152 14.1133C53.0152 13.4088 52.7365 12.733 52.2398 12.2333C51.9919 11.9834 51.697 11.785 51.372 11.6496C51.047 11.5142 50.6985 11.4445 50.3465 11.4445C49.9944 11.4445 49.6459 11.5142 49.3209 11.6496C48.996 11.785 48.701 11.9834 48.4531 12.2333L39.0398 21.6467C38.5431 21.147 38.2643 20.4712 38.2643 19.7667C38.2643 19.0622 38.5431 18.3863 39.0398 17.8867L46.5598 10.34C46.8389 10.1009 47.0657 9.80676 47.2257 9.47592C47.3858 9.14509 47.4757 8.78473 47.4899 8.41748C47.5041 8.05023 47.4422 7.68401 47.3082 7.34181C47.1741 6.99961 46.9707 6.68882 46.7109 6.42894C46.451 6.16906 46.1402 5.9657 45.798 5.83164C45.4558 5.69757 45.0896 5.63569 44.7223 5.64988C44.3551 5.66406 43.9947 5.75401 43.6639 5.91407C43.333 6.07413 43.0388 6.30085 42.7998 6.58L35.2531 14.1267C33.755 15.6267 32.9135 17.66 32.9135 19.78C32.9135 21.9 33.755 23.9333 35.2531 25.4333L31.9998 28.74L27.8398 24.6333C29.0205 22.5026 29.4669 20.0424 29.1103 17.6326C28.7536 15.2228 27.6137 12.9975 25.8665 11.3C22.0265 7.46 12.0798 3.16667 7.38646 7.94C2.69312 12.7133 6.93312 22.5533 10.6665 26.42C12.7513 28.5124 15.5544 29.7327 18.5065 29.8333H18.8798C20.6828 29.8077 22.4478 29.3113 23.9998 28.3933L28.1865 32.5L6.10646 54.58C5.85957 54.8286 5.66408 55.1235 5.53113 55.4477C5.39819 55.7718 5.3304 56.119 5.33164 56.4694C5.33288 56.8198 5.40312 57.1665 5.53835 57.4898C5.67358 57.813 5.87115 58.1065 6.11979 58.3533C6.36843 58.6002 6.66325 58.7957 6.98744 58.9287C7.31163 59.0616 7.65883 59.1294 8.00922 59.1282C8.3596 59.1269 8.70632 59.0567 9.02956 58.9214C9.3528 58.7862 9.64624 58.5886 9.89312 58.34L33.8931 34.34L39.0131 29.22C39.7606 29.9615 40.6472 30.5481 41.6219 30.9462C42.5966 31.3443 43.6403 31.5461 44.6931 31.54ZM22.4798 23.0067C21.9802 23.5033 21.384 23.8921 20.7281 24.149C20.0721 24.4058 19.3704 24.5253 18.6665 24.5C17.1075 24.4329 15.6354 23.7637 14.5598 22.6333C11.6798 19.7533 9.65312 13.22 11.1731 11.7C11.678 11.3192 12.3018 11.1301 12.9331 11.1667C16.3366 11.4379 19.558 12.8145 22.1065 15.0867C23.1952 16.0939 23.8445 17.4887 23.9143 18.9703C23.9841 20.4518 23.4689 21.9015 22.4798 23.0067Z" fill="#858585"/>
</svg>
