<svg width="24" height="25" viewBox="0 0 24 25" fill="none" xmlns="http://www.w3.org/2000/svg">
<mask id="mask0_3422_14625" style="mask-type:alpha" maskUnits="userSpaceOnUse" x="0" y="0" width="24" height="25">
<rect y="0.5" width="24" height="24" fill="#D9D9D9"/>
</mask>
<g mask="url(#mask0_3422_14625)">
<path d="M13.8544 14.1924C13.3659 13.3655 12.6497 12.8062 11.7057 12.5145C10.7617 12.2228 9.78627 12.077 8.77936 12.077C7.77551 12.077 6.79761 12.2228 5.84568 12.5145C4.89375 12.8062 4.17996 13.3655 3.70433 14.1924H13.8544ZM8.77936 10.577C9.44344 10.577 10.1425 10.6504 10.8765 10.7972C11.6104 10.944 12.3005 11.1789 12.9466 11.502C13.5928 11.8251 14.1543 12.2402 14.6312 12.7472C15.1082 13.2542 15.4277 13.8722 15.5898 14.6011C15.6546 14.8837 15.5959 15.1363 15.4138 15.3587C15.2317 15.5811 14.9965 15.6924 14.7082 15.6924H2.85053C2.5622 15.6924 2.32697 15.5811 2.14485 15.3587C1.96274 15.1363 1.9041 14.8837 1.96893 14.6011C2.13103 13.8722 2.4531 13.2542 2.93515 12.7472C3.4172 12.2402 3.9813 11.8251 4.62745 11.502C5.2736 11.1789 5.9611 10.944 6.68993 10.7972C7.41878 10.6504 8.11526 10.577 8.77936 10.577ZM2.47168 19.3462C2.25918 19.3462 2.08105 19.2743 1.9373 19.1305C1.79355 18.9866 1.72168 18.8084 1.72168 18.5959C1.72168 18.3833 1.79355 18.2052 1.9373 18.0616C2.08105 17.918 2.25917 17.8462 2.47165 17.8462H15.087C15.2995 17.8462 15.4776 17.9181 15.6214 18.0619C15.7651 18.2058 15.837 18.3839 15.837 18.5965C15.837 18.8091 15.7651 18.9872 15.6214 19.1308C15.4776 19.2744 15.2995 19.3462 15.087 19.3462H2.47168ZM19.3447 23H18.587C18.3745 23 18.1964 22.9281 18.0526 22.7843C17.9089 22.6405 17.837 22.4623 17.837 22.2497C17.837 22.0371 17.9089 21.859 18.0526 21.7154C18.1964 21.5718 18.3745 21.5 18.587 21.5H19.237L20.637 7.69236H12.0755C11.863 7.69236 11.6849 7.62045 11.5411 7.47663C11.3974 7.33283 11.3255 7.15463 11.3255 6.94203C11.3255 6.72945 11.3974 6.55137 11.5411 6.40778C11.6849 6.26418 11.863 6.19238 12.0755 6.19238H15.9716V2.94238C15.9716 2.72988 16.0435 2.55176 16.1874 2.40801C16.3312 2.26426 16.5094 2.19238 16.722 2.19238C16.9345 2.19238 17.1126 2.26426 17.2562 2.40801C17.3998 2.55176 17.4716 2.72988 17.4716 2.94238V6.19238H21.2851C21.5562 6.19238 21.783 6.2903 21.9653 6.48613C22.1477 6.68197 22.2222 6.91546 22.1889 7.18661L20.7062 21.8193C20.6626 22.1654 20.5113 22.4487 20.2524 22.6692C19.9934 22.8897 19.6908 23 19.3447 23ZM2.47165 23C2.25915 23 2.08104 22.9281 1.9373 22.7843C1.79355 22.6405 1.72168 22.4623 1.72168 22.2497C1.72168 22.0371 1.79355 21.859 1.9373 21.7154C2.08105 21.5718 2.25917 21.5 2.47165 21.5H15.087C15.2995 21.5 15.4776 21.5719 15.6214 21.7158C15.7651 21.8596 15.837 22.0378 15.837 22.2504C15.837 22.4629 15.7651 22.641 15.6214 22.7846C15.4776 22.9282 15.2995 23 15.087 23L2.47165 23Z" fill="#4590BB"/>
</g>
</svg>
