<svg width="160" height="160" viewBox="0 0 160 160" fill="none" xmlns="http://www.w3.org/2000/svg">
<path d="M73.334 26.6667H26.6673C23.1311 26.6667 19.7397 28.0714 17.2392 30.5719C14.7387 33.0724 13.334 36.4638 13.334 40V133.333C13.334 136.87 14.7387 140.261 17.2392 142.761C19.7397 145.262 23.1311 146.667 26.6673 146.667H120.001C123.537 146.667 126.928 145.262 129.429 142.761C131.929 140.261 133.334 136.87 133.334 133.333V86.6667" stroke="#F7941E" stroke-width="8" stroke-linecap="round" stroke-linejoin="round"/>
<path d="M123.334 16.6667C125.986 14.0145 129.583 12.5245 133.334 12.5245C137.085 12.5245 140.682 14.0145 143.334 16.6667C145.986 19.3188 147.476 22.9159 147.476 26.6667C147.476 30.4174 145.986 34.0145 143.334 36.6667L80.0007 100L53.334 106.667L60.0007 80L123.334 16.6667Z" stroke="#F7941E" stroke-width="8" stroke-linecap="round" stroke-linejoin="round"/>
</svg>
